<?xml version="1.0"?>
<svg id="Layer_2" xmlns="http://www.w3.org/2000/svg" version="1.1" viewBox="0 0 80.4 82.7">
  
  <defs></defs>
  <g id="Layer_1-2">
    <g>
      <circle cx="60.4" cy="4" r="4" fill="#F2065B"></circle>
      <circle cx="60.4" cy="44.4" r="4" fill="#F96816"></circle>
      <circle cx="20" cy="4" r="4" fill="#0D6CCE"></circle>
      <circle cx="20" cy="44.4" r="4" fill="#049995"></circle>
      <circle cx="20" cy="24.2" r="4" fill="#03C3DD"></circle>
      <circle cx="60.4" cy="24.2" r="4" fill="#F9AE06"></circle>
      <circle cx="40.2" cy="24.2" r="4" fill="#111111"></circle>
      <g>
        <path d="M10.9,82.4v-6.8H3.2v6.8H0v-16.2h3.2v6.5h7.8v-6.5h3.2v16.2h-3.2Z" fill="#111111"></path>
        <path d="M26.1,70.2h3v6.4c0,1-.1,1.9-.4,2.7-.3.8-.7,1.4-1.2,1.9-.5.5-1.2.9-1.9,1.2-.7.3-1.6.4-2.5.4s-1.7-.1-2.5-.4c-.7-.3-1.4-.6-1.9-1.2-.5-.5-.9-1.2-1.2-1.9-.3-.8-.4-1.7-.4-2.7v-6.4h3v6.4c0,1.2.3,2,.8,2.6s1.3.8,2.2.8,1.7-.3,2.2-.8.8-1.4.8-2.6v-6.4h0Z" fill="#111111"></path>
        <path d="M44.1,76.2c0,1-.2,1.9-.5,2.7s-.8,1.5-1.3,2.1-1.3,1-2.1,1.3c-.8.3-1.7.5-2.7.5s-1.9-.2-2.7-.5-1.5-.8-2.1-1.3-1-1.2-1.4-2-.5-1.7-.5-2.6.2-2,.5-2.8.8-1.5,1.4-2,1.2-.9,1.9-1.2c.7-.3,1.5-.4,2.2-.4s1.7.2,2.4.5c.7.4,1.2.9,1.7,1.5h0v-7.1h3v11.4h0ZM37.5,80c1.1,0,2-.3,2.6-1,.7-.7,1-1.6,1-2.7s-.3-2-1-2.7c-.7-.7-1.5-1-2.6-1s-2,.3-2.6,1c-.7.7-1,1.6-1,2.7s.3,2,1,2.7c.7.7,1.5,1,2.6,1Z" fill="#111111"></path>
        <path d="M59.1,76.2c0,1-.2,1.9-.5,2.7s-.8,1.5-1.3,2.1-1.3,1-2.1,1.3c-.8.3-1.7.5-2.7.5s-1.9-.2-2.7-.5-1.5-.8-2.1-1.3c-.6-.6-1-1.2-1.4-2s-.5-1.7-.5-2.6.2-2,.5-2.8.8-1.5,1.4-2,1.2-.9,1.9-1.2c.7-.3,1.5-.4,2.2-.4s1.7.2,2.4.5c.7.4,1.2.9,1.7,1.5h0v-7.1h3v11.4h0ZM52.6,80c1.1,0,2-.3,2.6-1,.7-.7,1-1.6,1-2.7s-.3-2-1-2.7c-.7-.7-1.5-1-2.6-1s-2,.3-2.6,1c-.7.7-1,1.6-1,2.7s.3,2,1,2.7c.7.7,1.5,1,2.6,1Z" fill="#111111"></path>
        <path d="M62,82.4v-17.6h3v17.6h-3Z" fill="#111111"></path>
        <path d="M70.4,77.3h0c.2.9.6,1.5,1.2,2,.6.5,1.4.7,2.3.7,1.3,0,2.3-.4,2.9-1.2h3.1c-.5,1.2-1.2,2.1-2.3,2.8-1.1.7-2.3,1-3.8,1s-1.9-.2-2.7-.5-1.5-.8-2.1-1.3c-.6-.6-1-1.2-1.4-2s-.5-1.7-.5-2.6.2-1.8.5-2.6.8-1.5,1.4-2c.6-.6,1.3-1,2.1-1.3.8-.3,1.7-.5,2.7-.5s1.8.2,2.7.5c.8.3,1.5.8,2.1,1.3s1,1.2,1.3,2,.5,1.7.5,2.6v1h-10ZM73.9,72.5c-.9,0-1.6.2-2.2.6-.6.4-1,1-1.2,1.8h0c0,0,6.8,0,6.8,0h0c-.2-.8-.6-1.4-1.2-1.8-.6-.4-1.3-.6-2.2-.6h0Z" fill="#111111"></path>
      </g>
    </g>
  </g>
</svg>