<?xml version="1.0"?>
<svg id="Layer_2" xmlns="http://www.w3.org/2000/svg" version="1.1" viewBox="0 0 220.2 48.5">
  
  <defs>
    
  </defs>
  <g id="Layer_1-2">
    <g>
      <g>
        <path class="st2" d="M93.9,39.9v-12.3h-14.1v12.3h-5.8V10.5h5.8v11.8h14.1v-11.8h5.8v29.4s-5.8,0-5.8,0Z"></path>
        <path class="st2" d="M121.5,17.7h5.3v11.6c0,1.9-.3,3.5-.8,4.9s-1.3,2.6-2.2,3.5c-1,.9-2.1,1.7-3.5,2.1s-2.8.7-4.5.7-3.2-.2-4.5-.7-2.5-1.2-3.5-2.1c-1-.9-1.7-2.1-2.2-3.5s-.8-3-.8-4.9v-11.6h5.3v11.6c0,2.1.5,3.7,1.5,4.7s2.4,1.5,4.1,1.5,3.1-.5,4.1-1.5,1.5-2.6,1.5-4.7v-11.6h.2Z"></path>
        <path class="st2" d="M154.2,28.6c0,1.8-.3,3.4-.9,4.9-.6,1.5-1.4,2.7-2.4,3.8s-2.3,1.8-3.8,2.4-3.1.8-4.8.8-3.4-.3-4.8-.9c-1.5-.6-2.7-1.4-3.8-2.4s-1.9-2.3-2.5-3.7-.9-3-.9-4.7.3-3.7,1-5.1c.6-1.5,1.5-2.7,2.5-3.6,1-1,2.2-1.7,3.5-2.2s2.6-.7,4-.7,3.2.3,4.4,1c1.3.7,2.3,1.6,3,2.7h0v-12.9h5.4v20.7h.1ZM142.3,35.5c2,0,3.6-.6,4.8-1.9,1.2-1.2,1.8-2.9,1.8-4.8s-.6-3.6-1.8-4.8c-1.2-1.2-2.8-1.9-4.8-1.9s-3.6.6-4.8,1.9-1.8,2.9-1.8,4.8.6,3.6,1.8,4.8,2.8,1.9,4.8,1.9Z"></path>
        <path class="st2" d="M181.5,28.6c0,1.8-.3,3.4-.9,4.9-.6,1.5-1.4,2.7-2.4,3.8s-2.3,1.8-3.8,2.4-3.1.8-4.8.8-3.4-.3-4.8-.9c-1.5-.6-2.7-1.4-3.8-2.4s-1.9-2.3-2.5-3.7-.9-3-.9-4.7.3-3.7,1-5.1c.6-1.5,1.5-2.7,2.5-3.6,1-1,2.2-1.7,3.5-2.2s2.6-.7,4-.7,3.2.3,4.4,1c1.3.7,2.3,1.6,3,2.7h0v-12.9h5.4v20.7h.1ZM169.6,35.5c2,0,3.6-.6,4.8-1.9,1.2-1.2,1.8-2.9,1.8-4.8s-.6-3.6-1.8-4.8c-1.2-1.2-2.8-1.9-4.8-1.9s-3.6.6-4.8,1.9-1.8,2.9-1.8,4.8.6,3.6,1.8,4.8,2.8,1.9,4.8,1.9Z"></path>
        <path class="st2" d="M186.7,39.9V8h5.4v31.9h-5.4Z"></path>
        <path class="st2" d="M201.9,30.7h0c.4,1.6,1.1,2.8,2.2,3.6s2.5,1.3,4.2,1.3,4.1-.7,5.3-2.1h5.7c-.8,2.1-2.2,3.8-4.1,5.1s-4.2,1.9-6.8,1.9-3.4-.3-4.8-.9c-1.5-.6-2.7-1.4-3.8-2.4s-1.9-2.3-2.5-3.7-.9-3-.9-4.7.3-3.2.9-4.7c.6-1.4,1.4-2.7,2.5-3.7s2.3-1.8,3.8-2.4c1.4-.6,3.1-.9,4.8-.9s3.3.3,4.8.9,2.7,1.4,3.8,2.4c1,1,1.8,2.3,2.4,3.7.6,1.4.9,3,.9,4.7v1.9h-18.4ZM208.3,22c-1.6,0-2.9.4-4,1.2s-1.8,1.8-2.2,3.2h12.4c-.4-1.4-1.2-2.5-2.2-3.3s-2.4-1.2-4-1.2h0Z"></path>
      </g>
      <circle class="st1" cx="44.4" cy="4" r="4"></circle>
      <circle class="st4" cx="44.4" cy="44.4" r="4"></circle>
      <circle class="st3" cx="4" cy="4" r="4"></circle>
      <circle class="st5" cx="4" cy="44.4" r="4"></circle>
      <circle class="st0" cx="4" cy="24.2" r="4"></circle>
      <circle class="st6" cx="44.4" cy="24.2" r="4"></circle>
      <circle class="st2" cx="24.2" cy="24.2" r="4"></circle>
    </g>
  </g>
</svg>